# xmcd
#
# Track frame offsets:
#	150
#	11642
#	20879
#	32422
#	40647
#	51346
#	62797
#	73946
#	83570
#	94357
#	105311
#	117452
#	129271
#	138073
#	149834
#	158764
#	168546
#	178099
#	189401
#	198589
#	208681
#	218144
#	230231
#	239585
#	252247
#	262076
#
# Disc length: 3619 seconds
#
# Revision: 0
# Processed by: cddbd v1.5.2PL0 Copyright (c) Steve Scherf et al.
# Submitted via: EasyCDDAExtractor 5.0.2.1
#
DISCID=880e211a
DTITLE=Jim Reeves - Have I Told You Lately That I Love You? [CD2]
DYEAR=2009
DGENRE=Country
TTITLE0=Teardrops In My Heart
TTITLE1=I Get The Blues When It Rains
TTITLE2=You Belong To Me
TTITLE3=Everywhere You Go
TTITLE4=Need Me
TTITLE5=I Care No More
TTITLE6=My Happiness
TTITLE7=Yours (Quiereme Mucho)
TTITLE8=That's My Desire
TTITLE9=Blues In My Heart
TTITLE10=I Don't See Me In Your Eyes Anymore
TTITLE11=Final Affair
TTITLE12=Marie
TTITLE13=Mona Lisa
TTITLE14=My Juanita
TTITLE15=Charmaine
TTITLE16=Margie
TTITLE17=Anna Marie
TTITLE18=Sweet Sue, Just You
TTITLE19=Linda
TTITLE20=Ramona
TTITLE21=Maria Elena
TTITLE22=My Mary
TTITLE23=Goodnight Irene
TTITLE24=Blue Boy
TTITLE25=Billy Bayou
EXTD=Disc 2\nTracks 1 - 12 from the album "Jim Reeves"\nReleased 1957\nTracks 
EXTD=13 - 26 from the album "Girls I Have Known"\nReleased 1958
EXTT0=
EXTT1=
EXTT2=
EXTT3=
EXTT4=
EXTT5=
EXTT6=
EXTT7=
EXTT8=
EXTT9=
EXTT10=
EXTT11=
EXTT12=
EXTT13=
EXTT14=
EXTT15=
EXTT16=
EXTT17=
EXTT18=
EXTT19=
EXTT20=
EXTT21=
EXTT22=
EXTT23=
EXTT24=
EXTT25=
PLAYORDER=
